<svg width="23" height="23" viewBox="0 0 23 23" fill="none" xmlns="http://www.w3.org/2000/svg">
<mask id="mask0_2182_1649" style="mask-type:luminance" maskUnits="userSpaceOnUse" x="0" y="0" width="23" height="23">
<path d="M22.501 11.5C22.501 5.42487 17.5761 0.5 11.501 0.5C5.42587 0.5 0.501007 5.42487 0.501007 11.5C0.501007 17.5751 5.42587 22.5 11.501 22.5C17.5761 22.5 22.501 17.5751 22.501 11.5Z" fill="white"/>
</mask>
<g mask="url(#mask0_2182_1649)">
<path d="M22.501 0.5H0.501007V22.5H22.501V0.5Z" fill="#FEDF89"/>
<path d="M5.1773 7.87929L4.4097 22.5259C4.30372 24.5481 5.85718 26.2734 7.87945 26.3794L22.526 27.147C24.5483 27.253 26.2736 25.6995 26.3796 23.6772L27.1471 9.03068C27.2531 7.00842 25.6997 5.28313 23.6774 5.17715L9.03084 4.40955C7.00857 4.30357 5.28328 5.85703 5.1773 7.87929Z" fill="#F1F9FC"/>
<path d="M10.6201 14.4102C10.652 15.0171 11.0039 15.5824 11.5987 15.9816C12.1934 16.3807 12.9822 16.5812 13.7915 16.5388C14.6007 16.4964 15.3642 16.2146 15.914 15.7554C16.4637 15.2962 16.7547 14.6973 16.7229 14.0903" fill="#23272B"/>
<path d="M10.1872 11.9842C10.1695 11.6471 9.9503 11.3846 9.69751 11.3979C9.44473 11.4111 9.25413 11.6951 9.27179 12.0321C9.28945 12.3692 9.50869 12.6317 9.76148 12.6184C10.0143 12.6052 10.2049 12.3212 10.1872 11.9842Z" fill="#23272B"/>
<path d="M17.5107 11.5994C17.493 11.2624 17.2738 10.9999 17.021 11.0131C16.7682 11.0264 16.5776 11.3103 16.5952 11.6474C16.6129 11.9844 16.8322 12.2469 17.0849 12.2337C17.3377 12.2204 17.5283 11.9365 17.5107 11.5994Z" fill="#23272B"/>
</g>
</svg>
