<svg width="23" height="23" viewBox="0 0 23 23" fill="none" xmlns="http://www.w3.org/2000/svg">
<mask id="mask0_2182_1687" style="mask-type:luminance" maskUnits="userSpaceOnUse" x="0" y="0" width="23" height="23">
<path d="M22.501 11.5C22.501 5.42487 17.5761 0.5 11.501 0.5C5.42587 0.5 0.501007 5.42487 0.501007 11.5C0.501007 17.5751 5.42587 22.5 11.501 22.5C17.5761 22.5 22.501 17.5751 22.501 11.5Z" fill="white"/>
</mask>
<g mask="url(#mask0_2182_1687)">
<path d="M22.501 0.5H0.501007V22.5H22.501V0.5Z" fill="#F1F9FC"/>
<path d="M15.4026 29.4426C22.0098 26.3616 24.8683 18.5079 21.7873 11.9008C18.7064 5.29364 10.8526 2.43511 4.24551 5.51606C-2.36162 8.59702 -5.22015 16.4508 -2.1392 23.0579C0.941759 29.665 8.7955 32.5235 15.4026 29.4426Z" fill="#B42318"/>
<path d="M7.68622 15.5059C7.63325 16.1113 7.90314 16.7201 8.43653 17.1981C8.96992 17.6762 9.72311 17.9845 10.5304 18.0551C11.3377 18.1257 12.133 17.953 12.7413 17.5748C13.3496 17.1966 13.7211 16.644 13.7741 16.0385" fill="white"/>
<path d="M9.52904 11.9856C9.55846 11.6493 9.37788 11.3589 9.12572 11.3368C8.87355 11.3148 8.64528 11.5694 8.61587 11.9057C8.58645 12.2419 8.76703 12.5323 9.01919 12.5544C9.27136 12.5765 9.49963 12.3218 9.52904 11.9856Z" fill="white"/>
<path d="M13.1814 12.3059C13.2108 11.9696 13.0302 11.6792 12.7781 11.6571C12.5259 11.6351 12.2976 11.8898 12.2682 12.226C12.2388 12.5622 12.4194 12.8526 12.6715 12.8747C12.9237 12.8968 13.152 12.6421 13.1814 12.3059Z" fill="white"/>
</g>
</svg>
