<svg width="23" height="23" viewBox="0 0 23 23" fill="none" xmlns="http://www.w3.org/2000/svg">
<mask id="mask0_2182_1383" style="mask-type:luminance" maskUnits="userSpaceOnUse" x="0" y="0" width="23" height="23">
<path d="M22.501 11.5C22.501 5.42487 17.5761 0.5 11.501 0.5C5.42587 0.5 0.501007 5.42487 0.501007 11.5C0.501007 17.5751 5.42587 22.5 11.501 22.5C17.5761 22.5 22.501 17.5751 22.501 11.5Z" fill="white"/>
</mask>
<g mask="url(#mask0_2182_1383)">
<path d="M22.501 0.5H0.501007V22.5H22.501V0.5Z" fill="#FEDF89"/>
<path d="M7.02717 3.9641L4.57772 21.3928C4.23953 23.7992 5.91614 26.0242 8.32254 26.3624L25.7513 28.8118C28.1577 29.15 30.3826 27.4734 30.7208 25.067L33.1702 7.63827C33.5084 5.23187 31.8318 3.00693 29.4254 2.66873L11.9967 0.219284C9.59031 -0.118914 7.36537 1.5577 7.02717 3.9641Z" fill="#F1F9FC"/>
<path d="M11.1734 16.1855C11.258 16.7874 11.6579 17.3198 12.2851 17.6657C12.9124 18.0115 13.7156 18.1424 14.5181 18.0297C15.3206 17.9169 16.0567 17.5696 16.5643 17.0643C17.0719 16.5589 17.3096 15.9369 17.225 15.335" fill="#23272B"/>
<path d="M10.3615 12.5967C10.3145 12.2625 10.0732 12.0201 9.82256 12.0554C9.57189 12.0906 9.40676 12.3901 9.45373 12.7243C9.50071 13.0585 9.74199 13.3009 9.99266 13.2657C10.2433 13.2305 10.4085 12.931 10.3615 12.5967Z" fill="#23272B"/>
<path d="M17.6232 11.5772C17.5762 11.243 17.3349 11.0006 17.0843 11.0358C16.8336 11.0711 16.6685 11.3706 16.7155 11.7048C16.7624 12.039 17.0037 12.2814 17.2544 12.2461C17.505 12.2109 17.6702 11.9114 17.6232 11.5772Z" fill="#23272B"/>
</g>
</svg>
