<svg width="23" height="23" viewBox="0 0 23 23" fill="none" xmlns="http://www.w3.org/2000/svg">
<mask id="mask0_2182_1345" style="mask-type:luminance" maskUnits="userSpaceOnUse" x="0" y="0" width="23" height="23">
<path d="M22.501 11.5C22.501 5.42487 17.5761 0.5 11.501 0.5C5.42587 0.5 0.501007 5.42487 0.501007 11.5C0.501007 17.5751 5.42587 22.5 11.501 22.5C17.5761 22.5 22.501 17.5751 22.501 11.5Z" fill="white"/>
</mask>
<g mask="url(#mask0_2182_1345)">
<path d="M22.501 0.5H0.501007V22.5H22.501V0.5Z" fill="#FEDF89"/>
<path d="M-2.41922 15.2798C-3.36958 21.2801 0.72423 26.9148 6.72457 27.8652C12.7249 28.8155 18.3596 24.7217 19.3099 18.7214C20.2603 12.721 16.1665 7.08637 10.1661 6.13601C4.16579 5.18565 -1.46886 9.27947 -2.41922 15.2798Z" fill="#B42318"/>
<path d="M5.52298 15.332C5.61806 15.9323 6.0272 16.4577 6.66041 16.7925C7.29361 17.1274 8.09901 17.2443 8.89941 17.1175C9.69982 16.9907 10.4297 16.6307 10.9284 16.1165C11.4272 15.6024 11.6539 14.9763 11.5589 14.376" fill="white"/>
<path d="M4.23587 13.0618C4.18308 12.7284 3.9376 12.4903 3.68758 12.5299C3.43757 12.5695 3.27769 12.8718 3.33049 13.2052C3.38329 13.5385 3.62877 13.7766 3.87878 13.737C4.1288 13.6974 4.28867 13.3951 4.23587 13.0618Z" fill="white"/>
<path d="M12.6873 11.7239C12.6345 11.3905 12.389 11.1524 12.139 11.192C11.889 11.2316 11.7291 11.5339 11.7819 11.8673C11.8347 12.2006 12.0802 12.4387 12.3302 12.3991C12.5802 12.3595 12.7401 12.0572 12.6873 11.7239Z" fill="white"/>
</g>
</svg>
