<svg width="23" height="23" viewBox="0 0 23 23" fill="none" xmlns="http://www.w3.org/2000/svg">
<mask id="mask0_2182_1459" style="mask-type:luminance" maskUnits="userSpaceOnUse" x="0" y="0" width="23" height="23">
<path d="M22.501 11.5C22.501 5.42487 17.5761 0.5 11.501 0.5C5.42587 0.5 0.501007 5.42487 0.501007 11.5C0.501007 17.5751 5.42587 22.5 11.501 22.5C17.5761 22.5 22.501 17.5751 22.501 11.5Z" fill="white"/>
</mask>
<g mask="url(#mask0_2182_1459)">
<path d="M22.501 0.5H0.501007V22.5H22.501V0.5Z" fill="#B42318"/>
<path d="M10.2451 20.651C16.3119 20.3331 20.9723 15.1572 20.6543 9.09039C20.3364 3.02359 15.1605 -1.63678 9.09372 -1.31884C3.02691 -1.00089 -1.63346 4.17498 -1.31551 10.2418C-0.99756 16.3086 4.17831 20.969 10.2451 20.651Z" fill="#F1F9FC"/>
<path d="M5.47726 11.7168C6.76485 12.1744 7.97796 12.0255 9.1166 11.2699" stroke="#23272B" stroke-width="2.22222" stroke-linecap="round"/>
<path d="M4.2702 9.40305C4.22907 9.06805 3.99205 8.8215 3.74081 8.85235C3.48956 8.8832 3.31923 9.17977 3.36036 9.51476C3.4015 9.84975 3.63851 10.0963 3.88976 10.0655C4.141 10.0346 4.31133 9.73804 4.2702 9.40305Z" fill="#23272B"/>
<path d="M10.3368 8.6589C10.2957 8.32391 10.0587 8.07736 9.80743 8.10821C9.55618 8.13905 9.38585 8.43563 9.42698 8.77062C9.46812 9.10561 9.70513 9.35217 9.95638 9.32132C10.2076 9.29047 10.378 8.9939 10.3368 8.6589Z" fill="#23272B"/>
</g>
</svg>
