<svg width="23" height="23" viewBox="0 0 23 23" fill="none" xmlns="http://www.w3.org/2000/svg">
<mask id="mask0_2182_1421" style="mask-type:luminance" maskUnits="userSpaceOnUse" x="0" y="0" width="23" height="23">
<path d="M22.501 11.5C22.501 5.42487 17.5761 0.5 11.501 0.5C5.42587 0.5 0.501007 5.42487 0.501007 11.5C0.501007 17.5751 5.42587 22.5 11.501 22.5C17.5761 22.5 22.501 17.5751 22.501 11.5Z" fill="white"/>
</mask>
<g mask="url(#mask0_2182_1421)">
<path d="M22.501 0.5H0.501007V22.5H22.501V0.5Z" fill="#F1F9FC"/>
<path d="M30.4392 18.1353L20.5974 3.54425C19.2386 1.52964 16.5038 0.998065 14.4892 2.35693L-0.101833 12.1987C-2.11644 13.5576 -2.64802 16.2923 -1.28915 18.3069L8.55264 32.898C9.91151 34.9126 12.6463 35.4442 14.6609 34.0853L29.2519 24.2435C31.2665 22.8847 31.7981 20.1499 30.4392 18.1353Z" fill="#FEDF89"/>
<path d="M8.65427 17.5781C8.75995 18.1118 9.1731 18.5758 9.80282 18.8683C10.4325 19.1607 11.2272 19.2575 12.0121 19.1373C12.797 19.0172 13.5077 18.69 13.988 18.2278C14.4682 17.7655 14.6786 17.206 14.5729 16.6723" fill="#23272B"/>
<path d="M9.14799 13.5423C9.09282 13.2205 8.86015 12.9922 8.62829 13.0325C8.39643 13.0728 8.25318 13.3664 8.30835 13.6882C8.36351 14.01 8.59619 14.2383 8.82805 14.198C9.05991 14.1577 9.20315 13.8641 9.14799 13.5423Z" fill="#23272B"/>
<path d="M14.0088 13.0306C13.9537 12.7087 13.721 12.4805 13.4891 12.5208C13.2573 12.5611 13.114 12.8546 13.1692 13.1765C13.2243 13.4983 13.457 13.7265 13.6889 13.6862C13.9207 13.646 14.064 13.3524 14.0088 13.0306Z" fill="#23272B"/>
</g>
</svg>
