<svg width="23" height="23" viewBox="0 0 23 23" fill="none" xmlns="http://www.w3.org/2000/svg">
<mask id="mask0_2182_1535" style="mask-type:luminance" maskUnits="userSpaceOnUse" x="0" y="0" width="23" height="23">
<path d="M22.501 11.5C22.501 5.42487 17.5761 0.5 11.501 0.5C5.42587 0.5 0.501007 5.42487 0.501007 11.5C0.501007 17.5751 5.42587 22.5 11.501 22.5C17.5761 22.5 22.501 17.5751 22.501 11.5Z" fill="white"/>
</mask>
<g mask="url(#mask0_2182_1535)">
<path d="M22.501 0.5H0.501007V22.5H22.501V0.5Z" fill="#B42318"/>
<path d="M9.30756 4.25082L2.64904 17.3189C1.72969 19.1232 2.4471 21.3312 4.25143 22.2506L17.3195 28.9091C19.1239 29.8284 21.3318 29.111 22.2512 27.3067L28.9097 14.2386C29.8291 12.4343 29.1116 10.2263 27.3073 9.30695L14.2392 2.64843C12.4349 1.72907 10.2269 2.44649 9.30756 4.25082Z" fill="#FEDF89"/>
<path d="M10.7061 13.873C10.586 14.4026 10.7813 14.9644 11.2489 15.4348C11.7165 15.9051 12.4182 16.2455 13.1995 16.3811C13.9809 16.5167 14.7779 16.4364 15.4153 16.1578C16.0527 15.8792 16.4782 15.4252 16.5983 14.8956" fill="#23272B"/>
<path d="M11.0955 11.5126C11.1579 11.1923 11.0221 10.8958 10.7922 10.8502C10.5622 10.8045 10.3252 11.0272 10.2628 11.3474C10.2003 11.6677 10.3362 11.9642 10.5661 12.0098C10.7961 12.0554 11.0331 11.8328 11.0955 11.5126Z" fill="#23272B"/>
<path d="M17.1595 12.2548C17.2219 11.9345 17.0861 11.6379 16.8561 11.5923C16.6262 11.5467 16.3891 11.7694 16.3267 12.0896C16.2643 12.4098 16.4001 12.7064 16.6301 12.752C16.8601 12.7976 17.0971 12.575 17.1595 12.2548Z" fill="#23272B"/>
</g>
</svg>
