<svg width="23" height="23" viewBox="0 0 23 23" fill="none" xmlns="http://www.w3.org/2000/svg">
<mask id="mask0_2182_1611" style="mask-type:luminance" maskUnits="userSpaceOnUse" x="0" y="0" width="23" height="23">
<path d="M22.501 11.5C22.501 5.42487 17.5761 0.5 11.501 0.5C5.42587 0.5 0.501007 5.42487 0.501007 11.5C0.501007 17.5751 5.42587 22.5 11.501 22.5C17.5761 22.5 22.501 17.5751 22.501 11.5Z" fill="white"/>
</mask>
<g mask="url(#mask0_2182_1611)">
<path d="M22.501 0.5H0.501007V22.5H22.501V0.5Z" fill="#F1F9FC"/>
<path d="M11.4121 -0.147784L1.04183 12.2111C-0.390014 13.9175 -0.167439 16.4615 1.53896 17.8934L13.8978 28.2637C15.6042 29.6955 18.1483 29.4729 19.5801 27.7665L29.9504 15.4077C31.3823 13.7013 31.1597 11.1572 29.4533 9.72539L17.0944 -0.644919C15.388 -2.07676 12.844 -1.85419 11.4121 -0.147784Z" fill="#B42318"/>
<path d="M13.3352 9.66797C14.5575 10.2791 15.7797 10.2791 17.0019 9.66797" stroke="white" stroke-width="2.22222" stroke-linecap="round"/>
<path d="M13.6396 6.61111C13.6396 6.2736 13.4344 6 13.1813 6C12.9281 6 12.7229 6.2736 12.7229 6.61111C12.7229 6.94862 12.9281 7.22222 13.1813 7.22222C13.4344 7.22222 13.6396 6.94862 13.6396 6.61111Z" fill="white"/>
<path d="M17.3054 6.61111C17.3054 6.2736 17.1002 6 16.847 6C16.5939 6 16.3887 6.2736 16.3887 6.61111C16.3887 6.94862 16.5939 7.22222 16.847 7.22222C17.1002 7.22222 17.3054 6.94862 17.3054 6.61111Z" fill="white"/>
</g>
</svg>

