<svg width="23" height="23" viewBox="0 0 23 23" fill="none" xmlns="http://www.w3.org/2000/svg">
<mask id="mask0_2182_1573" style="mask-type:luminance" maskUnits="userSpaceOnUse" x="0" y="0" width="23" height="23">
<path d="M22.501 11.5C22.501 5.42487 17.5761 0.5 11.501 0.5C5.42587 0.5 0.501007 5.42487 0.501007 11.5C0.501007 17.5751 5.42587 22.5 11.501 22.5C17.5761 22.5 22.501 17.5751 22.501 11.5Z" fill="white"/>
</mask>
<g mask="url(#mask0_2182_1573)">
<path d="M22.501 0.5H0.501007V22.5H22.501V0.5Z" fill="#FEDF89"/>
<path d="M16.7455 6.26687C11.8306 2.696 4.95158 3.78553 1.38071 8.70042C-2.19017 13.6153 -1.10063 20.4944 3.81426 24.0652C8.72914 27.6361 15.6082 26.5466 19.1791 21.6317C22.75 16.7168 21.6604 9.83774 16.7455 6.26687Z" fill="#B42318"/>
<path d="M7.17725 15.4531C7.11371 16.0576 7.37295 16.6709 7.89791 17.1582C8.42288 17.6456 9.17057 17.9669 9.97652 18.0516C10.7825 18.1363 11.5806 17.9775 12.1954 17.6099C12.8103 17.2424 13.1913 16.6964 13.2549 16.0919" fill="white"/>
<path d="M8.34468 13.1176C8.37996 12.782 8.20448 12.4884 7.95274 12.462C7.701 12.4355 7.46832 12.6862 7.43304 13.0218C7.39776 13.3575 7.57324 13.651 7.82498 13.6775C8.07673 13.704 8.30941 13.4533 8.34468 13.1176Z" fill="white"/>
<path d="M13.2055 13.6294C13.2407 13.2937 13.0653 13.0001 12.8135 12.9737C12.5618 12.9472 12.3291 13.1979 12.2938 13.5335C12.2585 13.8692 12.434 14.1628 12.6858 14.1892C12.9375 14.2157 13.1702 13.965 13.2055 13.6294Z" fill="white"/>
</g>
</svg>

