<svg width="23" height="23" viewBox="0 0 23 23" fill="none" xmlns="http://www.w3.org/2000/svg">
<mask id="mask0_2182_1497" style="mask-type:luminance" maskUnits="userSpaceOnUse" x="0" y="0" width="23" height="23">
<path d="M22.501 11.5C22.501 5.42487 17.5761 0.5 11.501 0.5C5.42587 0.5 0.501007 5.42487 0.501007 11.5C0.501007 17.5751 5.42587 22.5 11.501 22.5C17.5761 22.5 22.501 17.5751 22.501 11.5Z" fill="white"/>
</mask>
<g mask="url(#mask0_2182_1497)">
<path d="M22.501 0.5H0.501007V22.5H22.501V0.5Z" fill="#FEDF89"/>
<path d="M-5.88702 4.73281C-6.90161 11.952 -1.87177 18.6268 5.34744 19.6414C12.5666 20.656 19.2415 15.6262 20.2561 8.40698C21.2707 1.18776 16.2408 -5.48705 9.02161 -6.50165C1.8024 -7.51624 -4.87242 -2.48641 -5.88702 4.73281Z" fill="#F1F9FC"/>
<path d="M7.49686 12.3457C8.79223 12.7808 10.0026 12.6107 11.1278 11.8354" stroke="#23272B" stroke-width="2.22222" stroke-linecap="round"/>
<path d="M5.47378 8.92876C5.42681 8.59454 5.18553 8.35216 4.93486 8.38738C4.68419 8.42261 4.51907 8.72211 4.56604 9.05634C4.61301 9.39056 4.85429 9.63294 5.10496 9.59771C5.35563 9.56248 5.52076 9.26298 5.47378 8.92876Z" fill="#23272B"/>
<path d="M12.7355 7.90923C12.6885 7.57501 12.4472 7.33262 12.1966 7.36785C11.9459 7.40308 11.7808 7.70258 11.8278 8.0368C11.8747 8.37103 12.116 8.61341 12.3667 8.57818C12.6173 8.54295 12.7825 8.24345 12.7355 7.90923Z" fill="#23272B"/>
</g>
</svg>
