<?xml version="1.0" standalone="no"?>
<!DOCTYPE svg PUBLIC "-//W3C//DTD SVG 20010904//EN"
 "http://www.w3.org/TR/2001/REC-SVG-20010904/DTD/svg10.dtd">
<svg version="1.0" xmlns="http://www.w3.org/2000/svg"
 width="129.000000pt" height="129.000000pt" viewBox="0 0 129.000000 129.000000"
 preserveAspectRatio="xMidYMid meet">
<metadata>
Created by potrace 1.14, written by Peter Selinger 2001-2017
</metadata>
<g transform="translate(0.000000,129.000000) scale(0.100000,-0.100000)"
fill="#000000" stroke="none">
<path d="M130 728 c0 -599 -1 -585 63 -632 25 -19 47 -22 200 -26 177 -5 197
-9 245 -53 l22 -20 23 21 c45 42 88 52 228 52 149 0 198 11 240 53 l29 29 0
559 0 559 -525 0 -525 0 0 -542z m450 288 c0 -2 -11 -71 -25 -153 -29 -176
-29 -173 -9 -173 11 0 14 -5 9 -17 -19 -47 -45 -127 -42 -130 4 -3 135 200
144 222 3 10 -2 15 -16 15 -12 0 -21 2 -21 4 0 3 28 55 63 118 l64 113 86 3
c48 1 87 0 87 -4 0 -3 -36 -66 -80 -139 -44 -73 -82 -139 -85 -147 -3 -8 27
-82 67 -164 40 -82 85 -175 100 -207 l28 -57 -85 0 -84 0 -60 108 c-87 158
-81 152 -113 104 -23 -34 -28 -53 -30 -124 l-3 -83 -77 0 c-43 0 -78 3 -78 8
0 4 0 165 0 357 l0 350 80 0 c44 0 80 -2 80 -4z"/>
</g>
</svg>
